<svg width="250" height="109" viewBox="0 0 250 109" fill="none" xmlns="http://www.w3.org/2000/svg">
<line x1="105" y1="55" x2="145" y2="55" stroke="white" stroke-width="12"/>
<line x1="127.483" y1="39.1805" x2="142.18" y2="54.5166" stroke="white" stroke-width="12" stroke-linecap="round"/>
<line x1="127" y1="70.5147" x2="140.515" y2="57" stroke="white" stroke-width="12" stroke-linecap="round"/>
<circle cx="54.5" cy="54.5" r="54.5" fill="white"/>
<circle cx="195.5" cy="54.5" r="54.5" fill="white"/>
<circle cx="55" cy="55" r="47.5" fill="white" stroke="black" stroke-width="5"/>
<circle cx="55" cy="55" r="47.5" fill="white" stroke="black" stroke-width="5"/>
<path d="M18.88 67V44.664H32.96V47H21.568V54.52H32V56.856H21.568V67H18.88ZM37.7475 64.824H43.5075V45.496H37.7475V43.32H46.0675V64.824H51.8275V67H37.7475V64.824ZM63.975 67.384C62.823 67.384 61.7777 67.1813 60.839 66.776C59.9217 66.3707 59.1323 65.7947 58.471 65.048C57.831 64.28 57.3403 63.3733 56.999 62.328C56.6577 61.2613 56.487 60.0667 56.487 58.744C56.487 57.4427 56.6577 56.2587 56.999 55.192C57.3403 54.1253 57.831 53.2187 58.471 52.472C59.1323 51.704 59.9217 51.1173 60.839 50.712C61.7777 50.3067 62.823 50.104 63.975 50.104C65.127 50.104 66.1617 50.3067 67.079 50.712C68.0177 51.1173 68.807 51.704 69.447 52.472C70.1083 53.2187 70.6097 54.1253 70.951 55.192C71.2923 56.2587 71.463 57.4427 71.463 58.744C71.463 60.0667 71.2923 61.2613 70.951 62.328C70.6097 63.3733 70.1083 64.28 69.447 65.048C68.807 65.7947 68.0177 66.3707 67.079 66.776C66.1617 67.1813 65.127 67.384 63.975 67.384ZM63.975 65.176C65.4043 65.176 66.5563 64.7493 67.431 63.896C68.3057 63.0427 68.743 61.72 68.743 59.928V57.56C68.743 55.768 68.3057 54.4453 67.431 53.592C66.5563 52.7387 65.4043 52.312 63.975 52.312C62.5457 52.312 61.3937 52.7387 60.519 53.592C59.6443 54.4453 59.207 55.768 59.207 57.56V59.928C59.207 61.72 59.6443 63.0427 60.519 63.896C61.3937 64.7493 62.5457 65.176 63.975 65.176ZM74.5225 50.488H76.7945L78.6825 64.76H78.9705L81.7865 50.488H84.6025L87.4185 64.76H87.7065L89.5945 50.488H91.8025L89.2745 67H85.9465L83.3225 53.176H83.0665L80.3785 67H77.0505L74.5225 50.488Z" fill="black"/>
<circle cx="195" cy="55" r="47.5" fill="white" stroke="black" stroke-width="5"/>
<path d="M159.04 44.664H165.28C168.011 44.664 170.048 45.6027 171.392 47.48C172.736 49.3573 173.408 52.1413 173.408 55.832C173.408 59.5227 172.736 62.3067 171.392 64.184C170.048 66.0613 168.011 67 165.28 67H159.04V44.664ZM165.152 64.664C166.944 64.664 168.288 64.0453 169.184 62.808C170.101 61.5707 170.56 59.8213 170.56 57.56V54.104C170.56 51.8427 170.101 50.0933 169.184 48.856C168.288 47.6187 166.944 47 165.152 47H161.728V64.664H165.152ZM191.028 67C190.025 67 189.31 66.744 188.884 66.232C188.457 65.72 188.19 65.08 188.084 64.312H187.924C187.561 65.272 186.974 66.0293 186.164 66.584C185.374 67.1173 184.308 67.384 182.964 67.384C181.236 67.384 179.86 66.936 178.836 66.04C177.812 65.144 177.299 63.9173 177.299 62.36C177.299 60.824 177.854 59.64 178.964 58.808C180.094 57.976 181.908 57.56 184.404 57.56H187.924V55.928C187.924 54.712 187.582 53.8053 186.9 53.208C186.217 52.5893 185.246 52.28 183.988 52.28C182.878 52.28 181.972 52.504 181.268 52.952C180.564 53.3787 179.998 53.9653 179.572 54.712L177.844 53.432C178.057 53.0053 178.345 52.5893 178.708 52.184C179.07 51.7787 179.518 51.4267 180.052 51.128C180.585 50.808 181.193 50.5627 181.876 50.392C182.558 50.2 183.316 50.104 184.148 50.104C186.089 50.104 187.625 50.5947 188.756 51.576C189.908 52.5573 190.484 53.9227 190.484 55.672V64.76H192.788V67H191.028ZM183.411 65.24C184.073 65.24 184.67 65.1653 185.204 65.016C185.758 64.8453 186.238 64.632 186.644 64.376C187.049 64.0987 187.358 63.7787 187.572 63.416C187.806 63.032 187.924 62.6267 187.924 62.2V59.48H184.404C182.868 59.48 181.748 59.6933 181.044 60.12C180.34 60.5467 179.988 61.1653 179.988 61.976V62.648C179.988 63.5013 180.286 64.152 180.884 64.6C181.502 65.0267 182.345 65.24 183.411 65.24ZM204.775 67C203.516 67 202.588 66.648 201.991 65.944C201.415 65.24 201.127 64.3333 201.127 63.224V52.664H195.623V50.488H199.719C200.274 50.488 200.658 50.3813 200.871 50.168C201.106 49.9333 201.223 49.5387 201.223 48.984V44.664H203.687V50.488H211.207V52.664H203.687V64.824H211.207V67H204.775ZM223.451 67.384C222.256 67.384 221.179 67.1813 220.219 66.776C219.28 66.3707 218.469 65.7947 217.786 65.048C217.125 64.28 216.613 63.3733 216.251 62.328C215.888 61.2613 215.707 60.0773 215.707 58.776C215.707 57.4533 215.888 56.2587 216.251 55.192C216.635 54.1253 217.157 53.2187 217.819 52.472C218.48 51.704 219.269 51.1173 220.187 50.712C221.125 50.3067 222.16 50.104 223.291 50.104C224.4 50.104 225.403 50.3067 226.299 50.712C227.216 51.1173 227.995 51.6827 228.635 52.408C229.275 53.112 229.765 53.9547 230.107 54.936C230.448 55.9173 230.619 56.9947 230.619 58.168V59.384H218.395V60.152C218.395 60.8773 218.512 61.5493 218.747 62.168C218.981 62.7867 219.312 63.32 219.739 63.768C220.187 64.216 220.72 64.568 221.339 64.824C221.979 65.0587 222.683 65.176 223.451 65.176C224.56 65.176 225.52 64.92 226.331 64.408C227.141 63.896 227.76 63.192 228.187 62.296L230.075 63.576C229.584 64.6853 228.763 65.6027 227.611 66.328C226.48 67.032 225.093 67.384 223.451 67.384ZM223.291 52.216C222.587 52.216 221.936 52.344 221.339 52.6C220.741 52.856 220.219 53.208 219.771 53.656C219.344 54.104 219.003 54.6373 218.747 55.256C218.512 55.8533 218.395 56.5147 218.395 57.24V57.464H227.867V57.112C227.867 56.3867 227.749 55.7253 227.515 55.128C227.301 54.5307 226.992 54.0187 226.587 53.592C226.203 53.144 225.723 52.8027 225.147 52.568C224.592 52.3333 223.973 52.216 223.291 52.216Z" fill="black"/>
<path d="M144.768 56.7678C145.744 55.7915 145.744 54.2085 144.768 53.2322L128.858 37.3223C127.882 36.346 126.299 36.346 125.322 37.3223C124.346 38.2986 124.346 39.8816 125.322 40.8579L139.464 55L125.322 69.1421C124.346 70.1184 124.346 71.7014 125.322 72.6777C126.299 73.654 127.882 73.654 128.858 72.6777L144.768 56.7678ZM103 55V57.5L143 57.5V55V52.5L103 52.5V55Z" fill="black"/>
<path d="M144.768 56.7678C145.744 55.7915 145.744 54.2085 144.768 53.2322L128.858 37.3223C127.882 36.346 126.299 36.346 125.322 37.3223C124.346 38.2986 124.346 39.8816 125.322 40.8579L139.464 55L125.322 69.1421C124.346 70.1184 124.346 71.7014 125.322 72.6777C126.299 73.654 127.882 73.654 128.858 72.6777L144.768 56.7678ZM103 55V57.5L143 57.5V55V52.5L103 52.5V55Z" fill="black"/>
</svg>
